<?xml version="1.0" encoding="utf-8"?>
<!-- Generator: Adobe Illustrator 20.1.0, SVG Export Plug-In . SVG Version: 6.00 Build 0)  -->
<svg version="1.1" id="Layer_1" xmlns="http://www.w3.org/2000/svg" xmlns:xlink="http://www.w3.org/1999/xlink" x="0px" y="0px"
	 viewBox="0 0 150 30" style="enable-background:new 0 0 150 30;" xml:space="preserve">
<style type="text/css">
	.st0{font-family:'Quicksand-Bold';}
	.st1{font-size:19.8142px;}
</style>
<text transform="matrix(1 -9.649946e-04 9.649946e-04 1 38.6669 22.3586)" class="st0 st1">T</text>
<text transform="matrix(1 -9.649946e-04 9.649946e-04 1 50.6977 22.347)" class="st0 st1">OUR</text>
<text transform="matrix(1 -9.649946e-04 9.649946e-04 1 98.8437 22.3005)" class="st0 st1">M</text>
<text transform="matrix(1 -9.649946e-04 9.649946e-04 1 115.0766 22.2848)" class="st0 st1">A</text>
<text transform="matrix(1 -9.649946e-04 9.649946e-04 1 126.768 22.2735)" class="st0 st1">TE</text>
<path d="M1.9,13.3c0,0-0.1,0-0.1,0c0,0-0.1,0-0.1,0c0,0-0.1,0-0.1-0.1c0,0,0-0.1-0.1-0.1c0,0,0-0.1,0-0.1c0,0,0-0.1,0-0.1v-0.8
	c0,0,0-0.1,0-0.1c0,0,0-0.1,0-0.1s0-0.1,0.1-0.1c0,0,0.1-0.1,0.1-0.1c0,0,0.1,0,0.1,0s0.1,0,0.1,0H5c0.1,0,0.1,0,0.2,0.1
	c0.1,0,0.1,0.1,0.1,0.1c0,0.1,0.1,0.1,0.1,0.2s0,0.1-0.1,0.2c0,0.1-0.1,0.1-0.1,0.1c-0.1,0-0.1,0-0.2,0H2.3V13c0,0,0,0.1,0,0.1
	s0,0.1,0,0.1c0,0,0,0.1-0.1,0.1c0,0-0.1,0-0.1,0.1S2.1,13.3,1.9,13.3C2,13.3,2,13.3,1.9,13.3z"/>
<path d="M18.7,18.3h3.1v-5.4c0-0.1,0-0.2,0-0.3c0-0.1-0.1-0.2-0.1-0.3c-0.1-0.1-0.1-0.2-0.2-0.2c-0.1-0.1-0.1-0.1-0.2-0.2
	c-0.1-0.1-0.2-0.1-0.3-0.1s-0.2,0-0.3,0h-1.9V18.3z"/>
<path d="M6.2,16l0.7-4.2H5c-0.1,0-0.1,0-0.2,0c-0.1,0-0.1,0-0.2,0.1c-0.1,0-0.1,0.1-0.2,0.1c-0.1,0-0.1,0.1-0.2,0.1
	c-0.1,0.1-0.1,0.1-0.1,0.2c0,0.1-0.1,0.1-0.1,0.2c-0.4,1.1-1.3,3-1.7,3.4L2.1,16C2.1,16,6.2,16,6.2,16z"/>
<path d="M1.1,18.3h7.7v-6.5H7.6l-0.8,4.6c0,0,0,0.1,0,0.1s0,0.1-0.1,0.1c0,0,0,0.1-0.1,0.1c0,0-0.1,0-0.1,0.1s-0.1,0-0.1,0
	c0,0-0.1,0-0.1,0H1.3c0,0-0.1,0.1-0.1,0.1c0,0-0.1,0.1-0.1,0.1"/>
<rect x="14.1" y="11.8" width="3.8" height="6.5"/>
<path d="M17.9,8.4h-3V7.3c0,0,0-0.1,0-0.1c0,0,0-0.1,0-0.1c0,0,0-0.1-0.1-0.1c0,0-0.1,0-0.1-0.1c0,0-0.1,0-0.1,0s-0.1,0-0.1,0h-3.4
	c0,0-0.1,0-0.1,0c0,0-0.1,0-0.1,0c0,0-0.1,0-0.1,0.1c0,0,0,0.1-0.1,0.1c0,0,0,0.1,0,0.1s0,0.1,0,0.1V11h7.6V8.7c0,0,0-0.1,0-0.1
	c0,0,0-0.1,0-0.1c0,0,0-0.1-0.1-0.1c0,0-0.1,0-0.1-0.1s-0.1,0-0.1,0C18,8.4,18,8.4,17.9,8.4z"/>
<rect x="9.5" y="11.8" width="3.8" height="6.5"/>
<circle cx="16.2" cy="22.8" r="2.1"/>
<path d="M1.1,22.4c0,0.1,0.1,0.2,0.1,0.3c0.1,0.1,0.1,0.2,0.2,0.2C1.5,23,1.6,23,1.6,23.1c0.1,0.1,0.2,0.1,0.3,0.1s0.2,0,0.3,0h0.3
	c0,0,0,0,0-0.1c0,0,0,0,0-0.1c0,0,0,0,0-0.1c0,0,0,0,0-0.1c0,0,0,0,0-0.1c0,0,0,0,0-0.1c0-0.5,0.2-0.9,0.4-1.4c0.3-0.4,0.6-0.8,1-1
	c0.4-0.2,0.9-0.4,1.4-0.4s1,0.1,1.4,0.4c0.4,0.2,0.8,0.6,1,1c0.3,0.4,0.4,0.9,0.4,1.4c0,0,0,0,0,0.1c0,0,0,0,0,0.1c0,0,0,0,0,0.1
	c0,0,0,0,0,0.1c0,0,0,0,0,0.1c0,0,0,0,0,0.1h5.3c0,0,0,0,0-0.1c0,0,0,0,0-0.1c0,0,0,0,0-0.1c0,0,0,0,0-0.1c0,0,0,0,0-0.1
	c0,0,0,0,0-0.1c0-0.5,0.1-1,0.4-1.4s0.6-0.8,1.1-1.1c0.4-0.3,0.9-0.4,1.4-0.4c0.5,0,1,0.1,1.4,0.4s0.8,0.6,1.1,1.1
	c0.3,0.4,0.4,0.9,0.4,1.4c0,0,0,0,0,0.1c0,0,0,0,0,0.1c0,0,0,0,0,0.1c0,0,0,0,0,0.1c0,0,0,0,0,0.1c0,0,0,0,0,0.1h1.6
	c0.1,0,0.2,0,0.3,0c0.1,0,0.2-0.1,0.3-0.1c0.1-0.1,0.2-0.1,0.2-0.2c0.1-0.1,0.1-0.1,0.2-0.2c0.1-0.1,0.1-0.2,0.1-0.3
	c0-0.1,0-0.2,0-0.3v-3H1.1"/>
<circle cx="5.3" cy="22.8" r="2.1"/>
<polyline points="30,1.9 30,28.1 29.7,28.1 29.7,1.9 "/>
</svg>
