<?xml version="1.0" encoding="utf-8"?>
<!-- Generator: Adobe Illustrator 20.1.0, SVG Export Plug-In . SVG Version: 6.00 Build 0)  -->
<svg version="1.1" id="Layer_1" xmlns="http://www.w3.org/2000/svg" xmlns:xlink="http://www.w3.org/1999/xlink" x="0px" y="0px"
	 viewBox="0 0 138 120" style="enable-background:new 0 0 138 120;" xml:space="preserve">
<style type="text/css">
	.st0{fill:none;stroke:#FFFFFF;stroke-miterlimit:10;}
</style>
<path class="st0" d="M6.4,42.9c-0.2,0-0.5,0-0.7-0.2c-0.2,0-0.4-0.2-0.6-0.2c-0.2-0.2-0.4-0.2-0.5-0.4c-0.2-0.2-0.2-0.4-0.4-0.5
	c-0.2-0.2-0.2-0.4-0.2-0.6c0-0.2-0.2-0.5-0.2-0.7v-5c0-0.2,0-0.5,0.2-0.7c0-0.2,0.2-0.5,0.2-0.6c0.2-0.2,0.2-0.4,0.4-0.5
	c0.2-0.2,0.4-0.5,0.5-0.5C5.4,33.1,5.6,33,5.7,33c0.2,0,0.5-0.2,0.7-0.2h20.1c0.5,0,0.8,0.2,1.3,0.4c0.6,0.2,0.7,0.6,0.9,0.9
	c0.2,0.4,0.4,0.8,0.4,1.3c0,0.6-0.2,0.8-0.4,1.3c-0.2,0.4-0.6,0.7-0.9,0.9S27.1,38,26.5,38H9v2.7c0,0.2-0.2,0.5-0.2,0.6
	c0,0.2-0.2,0.4-0.2,0.6c-0.2,0.2-0.2,0.4-0.4,0.5c-0.2,0.2-0.4,0.2-0.6,0.4c-0.2,0.2-0.4,0.2-0.6,0.2C6.8,42.9,6.7,42.9,6.4,42.9z"
	/>
<path class="st0" d="M116.6,75.6h20V40.2c0-0.7-0.2-1.3-0.2-2c-0.2-0.6-0.5-1.3-0.7-1.7c-0.4-0.6-0.7-1.1-1.2-1.5
	c-0.5-0.5-0.9-0.8-1.5-1.2s-1.2-0.6-1.7-0.7c-0.6-0.2-1.3-0.2-2-0.2h-12.7V75.6L116.6,75.6z"/>
<path class="st0" d="M34.3,60.3l4.4-27.6H26.9c-0.5,0-0.9,0-1.4,0.2C25,33,24.5,33.1,24,33.3c-0.5,0.2-0.8,0.5-1.3,0.7
	c-0.4,0.2-0.8,0.6-1.2,0.9s-0.7,0.7-0.9,1.1c-0.2,0.4-0.5,0.8-0.7,1.3C17.2,44.7,11.6,57,8.5,59.7l-0.8,0.7
	C7.7,60.3,34.3,60.3,34.3,60.3z"/>
<path class="st0" d="M44,32.7l-5,30.3c0,0.2-0.2,0.4-0.2,0.6c0,0.2-0.2,0.4-0.4,0.5c-0.2,0.2-0.2,0.4-0.4,0.5
	c-0.2,0.2-0.4,0.2-0.5,0.4c-0.2,0.2-0.4,0.2-0.6,0.2c-0.2,0-0.4,0.2-0.6,0.2H2.3c-0.2,0.2-0.4,0.5-0.5,0.8c-0.2,0.2-0.4,0.6-0.5,0.8
	c-0.2,0.2-0.2,0.6-0.4,0.9c-0.2,0.4-0.2,0.6-0.2,0.9c0,0.2,0,0.5,0,0.8s0,0.6,0,0.9v5h50.4V32.7H44z"/>
<rect x="86.5" y="32.7" class="st0" width="25.1" height="43"/>
<path class="st0" d="M111.4,10.2H91.7v-7c0-0.2,0-0.5-0.2-0.7c0-0.2-0.2-0.5-0.2-0.6c-0.2-0.2-0.2-0.4-0.4-0.5
	c-0.2-0.2-0.4-0.2-0.5-0.4c-0.2-0.2-0.4-0.2-0.6-0.2c-0.2,0-0.5-0.2-0.7-0.2H66.7c-0.2,0-0.5,0-0.7,0.2c-0.2,0-0.5,0.2-0.6,0.2
	c-0.2,0.2-0.4,0.2-0.5,0.4c-0.2,0.2-0.2,0.4-0.4,0.5c-0.2,0.2-0.2,0.4-0.2,0.6c0,0.2-0.2,0.5-0.2,0.7v24.4H114V12.4
	c0-0.2-0.2-0.5-0.2-0.6c-0.2-0.2-0.2-0.4-0.2-0.6c-0.2-0.2-0.2-0.4-0.5-0.5c-0.2-0.2-0.4-0.2-0.6-0.4c-0.2-0.2-0.4-0.2-0.6-0.2
	C111.9,10.2,111.7,10.2,111.4,10.2z"/>
<rect x="56.3" y="32.7" class="st0" width="25.1" height="43"/>
<ellipse class="st0" cx="100.2" cy="105.5" rx="13.7" ry="13.8"/>
<path class="st0" d="M0.9,80.7v19.9c0,0.7,0.2,1.3,0.2,2c0.2,0.6,0.5,1.3,0.7,1.9c0.4,0.6,0.7,1.1,1.2,1.5c0.5,0.5,0.9,0.8,1.5,1.2
	s1.2,0.6,1.9,0.7c0.7,0.2,1.3,0.2,2,0.2h1.7c0-0.2,0-0.2-0.2-0.5c0-0.2,0-0.2,0-0.5c0-0.2,0-0.2,0-0.5c0-0.2,0-0.2,0-0.5
	c0-0.2,0-0.2,0-0.5c0-0.2,0-0.2,0-0.5c0.2-3.2,1.2-6.3,2.8-9s4-5,6.8-6.5c2.8-1.5,5.8-2.4,9.2-2.4s6.3,0.8,9.2,2.4
	c2.8,1.5,5.2,3.8,6.8,6.5c1.7,2.7,2.7,5.8,2.8,9c0,0.2,0,0.2,0,0.5c0,0.2,0,0.2,0,0.5c0,0.2,0,0.2,0,0.5c0,0.2,0,0.2,0,0.5
	c0,0.2,0,0.2,0,0.5c0,0.2,0,0.2-0.2,0.5h34.6c0-0.2,0-0.2-0.2-0.5c0-0.2,0-0.2,0-0.5c0-0.2,0-0.2,0-0.5c0-0.2,0-0.2,0-0.5
	c0-0.2,0-0.2,0-0.5c0-0.2,0-0.2,0-0.5c0-3.3,0.8-6.6,2.4-9.4c1.7-2.8,4-5.4,6.9-6.9c2.8-1.7,6.1-2.6,9.4-2.6c3.2,0,6.5,0.8,9.4,2.4
	c2.8,1.7,5.3,4,6.9,6.9c1.7,2.8,2.5,6.1,2.5,9.4c0,0.2,0,0.2,0,0.5c0,0.2,0,0.2,0,0.5c0,0.2,0,0.2,0,0.5c0,0.2,0,0.2,0,0.5
	c0,0.2,0,0.2,0,0.5c0,0.2,0,0.2-0.2,0.5h10.3c0.7,0,1.3-0.2,2-0.2c0.6-0.2,1.3-0.5,1.9-0.7c0.6-0.4,1-0.7,1.5-1.2
	c0.5-0.5,0.8-0.9,1.2-1.5c0.4-0.6,0.6-1.2,0.7-1.9c0.2-0.6,0.2-1.3,0.2-2V80.7C137.2,80.7,0.9,80.7,0.9,80.7z"/>
<ellipse class="st0" cx="28.6" cy="105.5" rx="13.7" ry="13.8"/>
</svg>
