<?xml version="1.0" encoding="utf-8"?>
<!-- Generator: Adobe Illustrator 20.1.0, SVG Export Plug-In . SVG Version: 6.00 Build 0)  -->
<svg version="1.1" id="Layer_1" xmlns="http://www.w3.org/2000/svg" xmlns:xlink="http://www.w3.org/1999/xlink" x="0px" y="0px"
	 viewBox="0 0 600 308" style="enable-background:new 0 0 600 308;" xml:space="preserve">
<style type="text/css">
	.st0{font-family:'Quicksand-Bold';}
	.st1{font-size:104.0968px;}
	.st2{letter-spacing:-1;}
	.st3{letter-spacing:-4;}
</style>
<text transform="matrix(1 -9.649874e-04 9.649874e-04 1 8.3889 291.5714)" class="st0 st1 st2">T</text>
<text transform="matrix(1 -9.649874e-04 9.649874e-04 1 71.594 291.5104)" class="st0 st1">OUR</text>
<text transform="matrix(1 -9.649874e-04 9.649874e-04 1 324.5344 291.2664)" class="st0 st1">M</text>
<text transform="matrix(1 -9.649874e-04 9.649874e-04 1 409.7942 291.1841)" class="st0 st1 st3">A</text>
<text transform="matrix(1 -9.649874e-04 9.649874e-04 1 471.2161 291.1248)" class="st0 st1">TE</text>
<path d="M202.8,74.2c-0.4,0-0.8,0-1.1-0.2c-0.2,0-0.6-0.2-0.9-0.2c-0.4-0.2-0.6-0.4-0.8-0.6s-0.4-0.6-0.6-0.8s-0.4-0.6-0.4-0.9
	c0-0.4-0.2-0.8-0.2-1.1v-8.1c0-0.4,0-0.8,0.2-1.1c0-0.4,0.2-0.8,0.4-0.9c0.2-0.2,0.4-0.6,0.6-0.8c0.2-0.4,0.6-0.8,0.8-0.8
	c0.4-0.2,0.6-0.4,0.9-0.4s0.8-0.2,1.1-0.2H235c0.8,0,1.3,0.2,2.1,0.6c0.8,0.4,1.1,0.9,1.5,1.5c0.4,0.6,0.6,1.3,0.6,2.1
	c0,0.8-0.2,1.3-0.6,2.1c-0.4,0.6-0.9,1.1-1.5,1.5c-0.6,0.4-1.3,0.4-2.1,0.4h-28.2v4.3c0,0.4-0.2,0.8-0.2,0.9c0,0.2-0.2,0.6-0.4,0.9
	c-0.2,0.2-0.4,0.6-0.6,0.8c-0.4,0.2-0.6,0.4-0.9,0.6c-0.4,0.2-0.6,0.2-0.9,0.4C203.4,74.2,203.2,74.2,202.8,74.2z"/>
<path d="M379.2,126.2h32.1V69.9c0-1.1-0.2-2.1-0.4-3.2c-0.2-0.9-0.8-2.1-1.1-2.8c-0.6-0.9-1.1-1.7-1.9-2.4s-1.5-1.3-2.4-1.9
	c-0.9-0.6-1.9-0.9-2.8-1.1c-0.9-0.2-2.1-0.4-3.2-0.4h-20.3V126.2z"/>
<path d="M247.4,101.8l7.1-44h-19c-0.8,0-1.5,0-2.3,0.2c-0.8,0.2-1.5,0.4-2.3,0.8c-0.8,0.4-1.3,0.8-2.1,1.1c-0.6,0.4-1.3,0.9-1.9,1.5
	c-0.6,0.6-1.1,1.1-1.5,1.7c-0.4,0.6-0.8,1.3-1.1,2.1c-4.3,11.5-13.1,31.2-18.2,35.5l-1.3,1.1C204.9,101.8,247.4,101.8,247.4,101.8z"
	/>
<path d="M262.9,57.8l-8.1,48.3c0,0.4-0.2,0.6-0.2,0.9c0,0.4-0.4,0.6-0.6,0.8c-0.2,0.2-0.4,0.6-0.6,0.8c-0.2,0.2-0.6,0.4-0.8,0.6
	c-0.2,0.2-0.6,0.2-0.9,0.4c-0.4,0-0.6,0.2-0.9,0.2h-54.5c-0.4,0.4-0.6,0.8-0.8,1.3c-0.2,0.4-0.6,0.9-0.8,1.3
	c-0.2,0.4-0.4,0.9-0.6,1.5c-0.2,0.6-0.2,0.9-0.4,1.5c0,0.2,0,0.8,0,1.3s0,0.9,0,1.5v8.1h80.6V57.8H262.9z"/>
<rect x="330.9" y="57.8" width="40.2" height="68.4"/>
<path d="M370.9,22h-31.6V10.9c0-0.4,0-0.8-0.2-1.1c0-0.4-0.2-0.8-0.4-0.9c-0.2-0.4-0.4-0.6-0.6-0.8c-0.2-0.2-0.6-0.4-0.8-0.6
	c-0.4-0.2-0.6-0.4-0.9-0.4s-0.8-0.2-1.1-0.2h-36.1c-0.4,0-0.8,0-1.1,0.2c-0.4,0-0.8,0.2-0.9,0.4c-0.4,0.2-0.6,0.4-0.8,0.6
	c-0.2,0.2-0.4,0.6-0.6,0.8c-0.2,0.4-0.4,0.6-0.4,0.9c0,0.4-0.2,0.8-0.2,1.1v38.9h79.8V25.5c0-0.4-0.2-0.8-0.2-0.9
	c-0.2-0.4-0.2-0.6-0.4-0.9c-0.2-0.4-0.4-0.6-0.8-0.8c-0.4-0.2-0.6-0.4-0.9-0.6c-0.4-0.2-0.6-0.2-0.9-0.4C371.7,22,371.3,22,370.9,22
	z"/>
<rect x="282.7" y="57.8" width="40.2" height="68.4"/>
<circle cx="352.9" cy="173.9" r="22"/>
<path d="M194,134.3v31.6c0,1.1,0.2,2.1,0.4,3.2c0.2,0.9,0.8,2.1,1.1,3c0.6,0.9,1.1,1.7,1.9,2.4c0.8,0.8,1.5,1.3,2.4,1.9
	c0.9,0.6,1.9,0.9,3,1.1s2.1,0.4,3.2,0.4h2.8c0-0.2,0-0.4-0.2-0.8c0-0.2,0-0.4,0-0.8c0-0.2,0-0.4,0-0.8c0-0.2,0-0.4,0-0.8
	c0-0.2,0-0.4,0-0.8c0-0.2,0-0.4,0-0.8c0.2-5.1,1.9-10,4.5-14.3s6.4-7.9,10.9-10.3c4.5-2.4,9.4-3.8,14.7-3.8c5.3,0,10.1,1.3,14.7,3.8
	c4.5,2.4,8.3,6,10.9,10.3c2.6,4.3,4.3,9.2,4.5,14.3c0,0.2,0,0.4,0,0.8c0,0.2,0,0.4,0,0.8c0,0.2,0,0.4,0,0.8c0,0.2,0,0.4,0,0.8
	c0,0.2,0,0.4,0,0.8c0,0.2,0,0.4-0.2,0.8H324c0-0.2,0-0.4-0.2-0.8c0-0.2,0-0.4,0-0.8c0-0.2,0-0.4,0-0.8c0-0.2,0-0.4,0-0.8
	c0-0.2,0-0.4,0-0.8c0-0.2,0-0.4,0-0.8c0-5.3,1.3-10.5,3.9-15c2.6-4.5,6.4-8.5,11.1-11.1c4.5-2.6,9.8-4.1,15-4.1s10.5,1.3,15,3.9
	c4.5,2.6,8.5,6.4,11.1,11.1c2.6,4.5,4.1,9.8,4.1,15c0,0.2,0,0.4,0,0.8c0,0.2,0,0.4,0,0.8c0,0.2,0,0.4,0,0.8c0,0.2,0,0.4,0,0.8
	c0,0.2,0,0.4,0,0.8c0,0.2,0,0.4-0.2,0.8h16.5c1.1,0,2.1-0.2,3.2-0.4c0.9-0.2,2.1-0.8,3-1.1c0.9-0.6,1.7-1.1,2.4-1.9
	c0.8-0.8,1.3-1.5,1.9-2.4s0.9-1.9,1.1-3c0.2-0.9,0.4-2.1,0.4-3.2v-31.4H194z"/>
<circle cx="238.3" cy="173.9" r="22"/>
<rect x="5.9" y="195.6" width="586.5" height="2"/>
</svg>
