<?xml version="1.0" encoding="utf-8"?>
<!-- Generator: Adobe Illustrator 20.1.0, SVG Export Plug-In . SVG Version: 6.00 Build 0)  -->
<svg version="1.1" id="Layer_1" xmlns="http://www.w3.org/2000/svg" xmlns:xlink="http://www.w3.org/1999/xlink" x="0px" y="0px"
	 viewBox="0 0 1024 1024" style="enable-background:new 0 0 1024 1024;" xml:space="preserve">
<style type="text/css">
	.st0{fill:#FDF2E9;stroke:#FFFFFF;stroke-miterlimit:10;}
</style>
<circle class="st0" cx="511.7" cy="512" r="511"/>
<path d="M181.1,422.5c-1.2,0-2.3-0.2-3.5-0.5c-1.1-0.3-2.2-0.7-3.2-1.3c-1-0.6-1.9-1.3-2.8-2.1c-0.8-0.8-1.5-1.8-2.1-2.8
	c-0.6-1-1-2.1-1.3-3.2c-0.3-1.1-0.5-2.3-0.5-3.5v-26.7c0-1.2,0.2-2.3,0.5-3.5c0.3-1.1,0.7-2.2,1.3-3.2c0.6-1,1.3-1.9,2.1-2.8
	c0.8-0.8,1.8-1.5,2.8-2.1c1-0.6,2.1-1,3.2-1.3c1.1-0.3,2.3-0.5,3.5-0.5h106.6c2.3,0,4.6,0.6,6.7,1.8c2,1.2,3.7,2.9,4.9,4.9
	c1.2,2,1.8,4.3,1.8,6.7c0,2.3-0.6,4.6-1.8,6.7c-1.2,2-2.9,3.7-4.9,4.9c-2,1.2-4.3,1.8-6.7,1.8h-93.3v14.4c-0.1,1.1-0.3,2.2-0.7,3.2
	c-0.4,1-0.8,2-1.5,3c-0.6,0.9-1.3,1.8-2.1,2.5c-0.8,0.7-1.7,1.4-2.7,1.9c-1,0.5-2,0.9-3.1,1.2C183.3,422.4,182.2,422.5,181.1,422.5z
	"/>
<path d="M765.2,594.5h106.6V407.8c0-3.5-0.5-6.9-1.4-10.3c-0.9-3.4-2.3-6.6-4-9.6c-1.8-3-3.9-5.8-6.4-8.2s-5.2-4.6-8.3-6.3
	c-3-1.7-6.2-3.1-9.6-4s-6.8-1.4-10.3-1.4h-66.7V594.5z"/>
<path d="M328.5,513.4L352,368.1H289c-2.6,0-5.1,0.3-7.6,0.8c-2.5,0.5-5,1.3-7.3,2.2c-2.4,1-4.6,2.2-6.8,3.6c-2.1,1.4-4.2,3-6,4.8
	c-1.8,1.8-3.5,3.7-5,5.9c-1.5,2.1-2.7,4.3-3.8,6.7C238.1,430,209.1,495.6,192,509.7l-4.5,3.7H328.5z"/>
<path d="M380,368.1l-26.7,160c-0.2,1-0.5,2-0.9,3c-0.4,1-0.9,1.9-1.5,2.7c-0.6,0.8-1.3,1.6-2.1,2.3c-0.8,0.7-1.7,1.3-2.6,1.7
	c-0.9,0.5-1.9,0.8-2.9,1.1c-1,0.2-2,0.4-3.1,0.4h-180c-1,1.4-1.9,2.8-2.8,4.2c-0.8,1.5-1.6,3-2.2,4.5c-0.7,1.6-1.2,3.1-1.7,4.8
	c-0.5,1.6-0.8,3.3-1.1,4.9c-0.3,1.7-0.4,3.3-0.5,5c-0.1,1.7,0,3.4,0.1,5.1v26.7h266.6V368.1H380z"/>
<rect x="605.3" y="368.1" width="133.3" height="226.6"/>
<path d="M737.8,249.2H633v-36.5c0-1.2-0.2-2.3-0.5-3.5c-0.3-1.1-0.7-2.2-1.3-3.2c-0.6-1-1.3-1.9-2.1-2.8c-0.8-0.8-1.8-1.5-2.8-2.1
	c-1-0.6-2.1-1-3.2-1.3c-1.1-0.3-2.3-0.5-3.5-0.5H501c-1.2,0-2.3,0.2-3.5,0.5c-1.1,0.3-2.2,0.7-3.2,1.3c-1,0.6-1.9,1.3-2.8,2.1
	c-0.8,0.8-1.5,1.8-2.1,2.8c-0.6,1-1,2.1-1.3,3.2c-0.3,1.1-0.5,2.3-0.5,3.5v128.8h264.2v-80c-0.1-1.2-0.3-2.3-0.7-3.4
	c-0.4-1.1-0.9-2.1-1.6-3.1c-0.6-1-1.4-1.8-2.3-2.6c-0.9-0.8-1.8-1.4-2.9-1.9c-1-0.5-2.1-0.9-3.3-1.1
	C740.1,249.2,738.9,249.1,737.8,249.2z"/>
<rect x="445.3" y="368.1" width="133.3" height="226.6"/>
<circle cx="678.3" cy="752.3" r="72.8"/>
<path d="M152,621.1v104.2c0,3.5,0.4,7,1.3,10.4c0.9,3.4,2.2,6.7,4,9.7c1.7,3,3.9,5.9,6.4,8.3c2.5,2.5,5.3,4.6,8.3,6.4s6.3,3.1,9.7,4
	s6.9,1.4,10.4,1.4h9.1c-0.1-0.7-0.2-1.5-0.3-2.2c-0.1-0.7-0.2-1.5-0.3-2.2c-0.1-0.7-0.2-1.5-0.2-2.2c-0.1-0.7-0.1-1.5-0.2-2.2
	c-0.1-0.7-0.1-1.5-0.1-2.2c0-0.7-0.1-1.5-0.1-2.2c0.9-16.9,6-33.2,15-47.5c8.9-14.3,21.4-26.1,36.1-34.3
	c14.8-8.2,31.4-12.5,48.2-12.5c16.9,0,33.5,4.3,48.2,12.5c14.8,8.2,27.2,20,36.1,34.3c8.9,14.3,14.1,30.7,15,47.5
	c0,0.7-0.1,1.5-0.1,2.2c0,0.7-0.1,1.5-0.1,2.2c-0.1,0.7-0.1,1.5-0.2,2.2c-0.1,0.7-0.2,1.5-0.2,2.2c-0.1,0.7-0.2,1.5-0.3,2.2
	c-0.1,0.7-0.2,1.5-0.3,2.2h183.2c-0.1-0.7-0.2-1.5-0.3-2.2c-0.1-0.7-0.2-1.5-0.3-2.2c-0.1-0.7-0.2-1.5-0.2-2.2
	c-0.1-0.7-0.1-1.5-0.2-2.2c-0.1-0.7-0.1-1.5-0.1-2.2c0-0.7-0.1-1.5-0.1-2.2c0-17.5,4.6-34.8,13.3-49.9c8.7-15.2,21.3-27.8,36.5-36.6
	s32.4-13.4,49.9-13.4c17.5,0,34.8,4.6,49.9,13.3c15.2,8.7,27.8,21.3,36.6,36.5c8.8,15.2,13.4,32.4,13.4,49.9c0,0.7-0.1,1.5-0.1,2.2
	c0,0.7-0.1,1.5-0.1,2.2c-0.1,0.7-0.1,1.5-0.2,2.2c-0.1,0.7-0.2,1.5-0.2,2.2c-0.1,0.7-0.2,1.5-0.3,2.2c-0.1,0.7-0.2,1.5-0.3,2.2h54.7
	c3.5,0,7-0.5,10.4-1.4c3.4-0.9,6.6-2.2,9.6-4c3-1.7,5.8-3.9,8.3-6.4c2.5-2.5,4.6-5.3,6.4-8.3c1.7-3,3.1-6.3,4-9.6
	c0.9-3.4,1.4-6.9,1.4-10.4V621.1H152z"/>
<circle cx="298.9" cy="752.3" r="72.8"/>
</svg>
