<?xml version="1.0" encoding="utf-8"?>
<!-- Generator: Adobe Illustrator 20.1.0, SVG Export Plug-In . SVG Version: 6.00 Build 0)  -->
<svg version="1.1" id="Layer_1" xmlns="http://www.w3.org/2000/svg" xmlns:xlink="http://www.w3.org/1999/xlink" x="0px" y="0px"
	 viewBox="0 0 1075 146.9" style="enable-background:new 0 0 1075 146.9;" xml:space="preserve">
<style type="text/css">
	.st0{font-family:'Quicksand-Bold';}
	.st1{font-size:110.8427px;}
	.st2{letter-spacing:-2;}
	.st3{letter-spacing:-5;}
</style>
<text transform="matrix(1 -9.650000e-04 9.650000e-04 1 209.9775 114.3731)"><tspan x="0" y="0" class="st0 st1 st2">T</tspan><tspan x="67.3" y="0" class="st0 st1">OUR</tspan></text>
<text transform="matrix(1 -9.650000e-04 9.650000e-04 1 546.6068 114.0483)"><tspan x="0" y="0" class="st0 st1">M</tspan><tspan x="90.8" y="0" class="st0 st1 st3">A</tspan><tspan x="156.2" y="0" class="st0 st1">TE</tspan></text>
<path d="M4.7,64.2c-0.2,0-0.4,0-0.6-0.1C4,64.1,3.8,64,3.6,64c-0.2-0.1-0.3-0.2-0.4-0.3c-0.1-0.1-0.2-0.3-0.3-0.4s-0.2-0.3-0.2-0.5
	c0-0.2-0.1-0.4-0.1-0.6v-4.3c0-0.2,0-0.4,0.1-0.6c0-0.2,0.1-0.4,0.2-0.5s0.2-0.3,0.3-0.4C3.3,56.2,3.5,56,3.6,56
	c0.2-0.1,0.3-0.2,0.5-0.2c0.2,0,0.4-0.1,0.6-0.1h17.1c0.4,0,0.7,0.1,1.1,0.3s0.6,0.5,0.8,0.8c0.2,0.3,0.3,0.7,0.3,1.1
	c0,0.4-0.1,0.7-0.3,1.1c-0.2,0.3-0.5,0.6-0.8,0.8S22.2,60,21.8,60h-15v2.3c0,0.2-0.1,0.4-0.1,0.5s-0.1,0.3-0.2,0.5
	c-0.1,0.1-0.2,0.3-0.3,0.4C6,63.8,5.9,63.9,5.7,64c-0.2,0.1-0.3,0.1-0.5,0.2C5,64.2,4.9,64.2,4.7,64.2z"/>
<path d="M98.6,91.9h17.1v-30c0-0.6-0.1-1.1-0.2-1.7c-0.1-0.5-0.4-1.1-0.6-1.5c-0.3-0.5-0.6-0.9-1-1.3s-0.8-0.7-1.3-1
	c-0.5-0.3-1-0.5-1.5-0.6s-1.1-0.2-1.7-0.2H98.6V91.9z"/>
<path d="M28.4,78.9l3.8-23.4H22.1c-0.4,0-0.8,0-1.2,0.1c-0.4,0.1-0.8,0.2-1.2,0.4s-0.7,0.4-1.1,0.6c-0.3,0.2-0.7,0.5-1,0.8
	c-0.3,0.3-0.6,0.6-0.8,0.9c-0.2,0.3-0.4,0.7-0.6,1.1c-2.3,6.1-7,16.6-9.7,18.9l-0.7,0.6H28.4z"/>
<path d="M36.7,55.5l-4.3,25.7c0,0.2-0.1,0.3-0.1,0.5S32.1,82,32,82.1c-0.1,0.1-0.2,0.3-0.3,0.4c-0.1,0.1-0.3,0.2-0.4,0.3
	c-0.1,0.1-0.3,0.1-0.5,0.2c-0.2,0-0.3,0.1-0.5,0.1H1.3c-0.2,0.2-0.3,0.4-0.4,0.7c-0.1,0.2-0.3,0.5-0.4,0.7s-0.2,0.5-0.3,0.8
	c-0.1,0.3-0.1,0.5-0.2,0.8C0,86.2,0,86.5,0,86.8s0,0.5,0,0.8v4.3h42.9V55.5H36.7z"/>
<rect x="72.9" y="55.5" width="21.4" height="36.4"/>
<path d="M94.2,36.4H77.4v-5.9c0-0.2,0-0.4-0.1-0.6c0-0.2-0.1-0.4-0.2-0.5c-0.1-0.2-0.2-0.3-0.3-0.4c-0.1-0.1-0.3-0.2-0.4-0.3
	c-0.2-0.1-0.3-0.2-0.5-0.2c-0.2,0-0.4-0.1-0.6-0.1H56.1c-0.2,0-0.4,0-0.6,0.1c-0.2,0-0.4,0.1-0.5,0.2c-0.2,0.1-0.3,0.2-0.4,0.3
	c-0.1,0.1-0.2,0.3-0.3,0.4c-0.1,0.2-0.2,0.3-0.2,0.5c0,0.2-0.1,0.4-0.1,0.6v20.7h42.5V38.3c0-0.2-0.1-0.4-0.1-0.5
	c-0.1-0.2-0.1-0.3-0.2-0.5c-0.1-0.2-0.2-0.3-0.4-0.4s-0.3-0.2-0.5-0.3c-0.2-0.1-0.3-0.1-0.5-0.2C94.6,36.4,94.4,36.4,94.2,36.4z"/>
<rect x="47.2" y="55.5" width="21.4" height="36.4"/>
<circle cx="84.6" cy="117.3" r="11.7"/>
<path d="M0,96.2v16.8c0,0.6,0.1,1.1,0.2,1.7c0.1,0.5,0.4,1.1,0.6,1.6c0.3,0.5,0.6,0.9,1,1.3s0.8,0.7,1.3,1s1,0.5,1.6,0.6
	s1.1,0.2,1.7,0.2h1.5c0-0.1,0-0.2-0.1-0.4c0-0.1,0-0.2,0-0.4c0-0.1,0-0.2,0-0.4c0-0.1,0-0.2,0-0.4c0-0.1,0-0.2,0-0.4
	c0-0.1,0-0.2,0-0.4c0.1-2.7,1-5.3,2.4-7.6c1.4-2.3,3.4-4.2,5.8-5.5c2.4-1.3,5-2,7.8-2s5.4,0.7,7.8,2s4.4,3.2,5.8,5.5
	c1.4,2.3,2.3,4.9,2.4,7.6c0,0.1,0,0.2,0,0.4c0,0.1,0,0.2,0,0.4c0,0.1,0,0.2,0,0.4c0,0.1,0,0.2,0,0.4c0,0.1,0,0.2,0,0.4
	c0,0.1,0,0.2-0.1,0.4h29.5c0-0.1,0-0.2-0.1-0.4c0-0.1,0-0.2,0-0.4c0-0.1,0-0.2,0-0.4c0-0.1,0-0.2,0-0.4c0-0.1,0-0.2,0-0.4
	c0-0.1,0-0.2,0-0.4c0-2.8,0.7-5.6,2.1-8s3.4-4.5,5.9-5.9c2.4-1.4,5.2-2.2,8-2.2c2.8,0,5.6,0.7,8,2.1c2.4,1.4,4.5,3.4,5.9,5.9
	c1.4,2.4,2.2,5.2,2.2,8c0,0.1,0,0.2,0,0.4c0,0.1,0,0.2,0,0.4c0,0.1,0,0.2,0,0.4c0,0.1,0,0.2,0,0.4c0,0.1,0,0.2,0,0.4
	c0,0.1,0,0.2-0.1,0.4h8.8c0.6,0,1.1-0.1,1.7-0.2c0.5-0.1,1.1-0.4,1.6-0.6c0.5-0.3,0.9-0.6,1.3-1c0.4-0.4,0.7-0.8,1-1.3
	c0.3-0.5,0.5-1,0.6-1.6c0.1-0.5,0.2-1.1,0.2-1.7V96.2H0z"/>
<circle cx="23.6" cy="117.3" r="11.7"/>
<rect x="159.9" width="2.1" height="146.9"/>
</svg>
